<svg width="37" height="37" viewBox="0 0 37 37" fill="none" xmlns="http://www.w3.org/2000/svg">
<path d="M37 18.5C37 28.7173 28.7173 37 18.5 37C8.28273 37 0 28.7173 0 18.5C0 8.28273 8.28273 0 18.5 0C28.7173 0 37 8.28273 37 18.5Z" fill="#FFB1AB"/>
<path d="M21.5098 11C21.7551 11 21.878 10.9998 21.9912 11.0127C22.583 11.0805 23.1142 11.4092 23.4395 11.9082C23.5017 12.0038 23.5572 12.1134 23.667 12.333L24.4873 13.9746C24.8013 14.6026 25.4434 14.9999 26.1455 15C27.1695 15 28 15.8305 28 16.8545V21.8574C28 23.8618 27.9997 24.8639 27.54 25.5957C27.3003 25.9773 26.9773 26.3003 26.5957 26.54C25.8639 26.9997 24.8618 27 22.8574 27H15.1426C13.1382 27 12.1361 26.9997 11.4043 26.54C11.0227 26.3003 10.6997 25.9773 10.46 25.5957C10.0003 24.8639 10 23.8618 10 21.8574V16.8545C10 15.8305 10.8305 15 11.8545 15C12.5566 14.9999 13.1987 14.6026 13.5127 13.9746L14.333 12.333C14.4428 12.1134 14.4983 12.0038 14.5605 11.9082C14.8858 11.4092 15.417 11.0805 16.0088 11.0127C16.122 10.9998 16.2449 11 16.4902 11H21.5098ZM19 16C16.7909 16 15 17.7909 15 20C15 22.2091 16.7909 24 19 24C21.2091 24 23 22.2091 23 20C23 17.7909 21.2091 16 19 16ZM19 17C20.6569 17 22 18.3431 22 20C22 21.6569 20.6569 23 19 23C17.3431 23 16 21.6569 16 20C16 18.3431 17.3431 17 19 17Z" fill="white"/>
</svg>
