<svg width="24" height="24" viewBox="0 0 24 24" fill="none" xmlns="http://www.w3.org/2000/svg">
<path d="M9.39453 10.5156C9.1445 10.9535 9 11.4596 9 12C9 13.6569 10.3431 15 12 15C12.5402 15 13.0455 14.8544 13.4834 14.6045L14.2109 15.332C13.5774 15.7532 12.8178 16 12 16C9.79086 16 8 14.2091 8 12C8 11.1821 8.24569 10.4217 8.66699 9.78809L9.39453 10.5156ZM12 8C14.2091 8 16 9.79086 16 12C16 12.2736 15.9722 12.5407 15.9199 12.7988L14.9961 11.875C14.9322 10.3173 13.6819 9.06629 12.124 9.00293L11.2002 8.0791C11.4586 8.02668 11.7262 8 12 8Z" fill="#403B3D"/>
<path d="M7.21704 8.33789C6.08796 9.17461 5.14453 10.146 4.47778 10.9199L4.19849 11.252C3.77413 11.7672 3.72974 11.8565 3.72974 12C3.72974 12.1435 3.77413 12.2328 4.19849 12.748C4.89364 13.592 6.00058 14.79 7.36743 15.7734C8.73842 16.7598 10.3285 17.5 12.0002 17.5C13.1988 17.5 14.3543 17.1179 15.4182 16.5391L16.1526 17.2734C14.9186 17.987 13.5101 18.4999 12.0002 18.5C10.0364 18.5 8.24246 17.6346 6.78345 16.585C5.50345 15.664 4.44842 14.5774 3.71899 13.7305L3.42603 13.3838C3.07406 12.9565 2.72974 12.5741 2.72974 12C2.72974 11.4259 3.07406 11.0435 3.42603 10.6162L3.71899 10.2695C4.3943 9.48548 5.34957 8.49731 6.50317 7.62402L7.21704 8.33789ZM12.0002 5.5C13.9641 5.50007 15.7581 6.36537 17.217 7.41504C18.6799 8.46756 19.8495 9.73608 20.5745 10.6162C20.9264 11.0435 21.2708 11.4259 21.2708 12L21.2668 12.1055C21.2277 12.622 20.9044 12.9832 20.5745 13.3838C20.094 13.9672 19.4162 14.7192 18.5891 15.4678L17.8811 14.7598C18.6767 14.0438 19.3337 13.3165 19.802 12.748C20.2263 12.2329 20.2708 12.1435 20.2708 12L20.2678 11.9482C20.2538 11.8279 20.1737 11.7032 19.802 11.252C19.1069 10.408 17.9999 9.20998 16.6331 8.22656C15.2621 7.24022 13.672 6.50007 12.0002 6.5C11.306 6.5 10.6261 6.62876 9.96997 6.84863L9.1897 6.06836C10.0696 5.71793 11.0137 5.5 12.0002 5.5Z" fill="#403B3D"/>
<path d="M5 2L21 18" stroke="#403B3D"/>
</svg>
