<svg width="24" height="25" viewBox="0 0 24 25" fill="none" xmlns="http://www.w3.org/2000/svg">
<circle cx="12" cy="15.5" r="2" fill="#403B3D"/>
<path d="M4.5 14C4.5 12.1144 4.5 11.1716 5.08579 10.5858C5.67157 10 6.61438 10 8.5 10H15.5C17.3856 10 18.3284 10 18.9142 10.5858C19.5 11.1716 19.5 12.1144 19.5 14V15C19.5 17.8284 19.5 19.2426 18.6213 20.1213C17.7426 21 16.3284 21 13.5 21H10.5C7.67157 21 6.25736 21 5.37868 20.1213C4.5 19.2426 4.5 17.8284 4.5 15V14Z" stroke="#403B3D"/>
<path d="M16.5 10V8.5C16.5 6.01472 14.4853 4 12 4V4C9.51472 4 7.5 6.01472 7.5 8.5V10" stroke="#403B3D" stroke-linecap="round"/>
</svg>
