<svg width="25" height="20" viewBox="0 0 25 20" fill="none" xmlns="http://www.w3.org/2000/svg">
<path d="M10.5922 6.62263C11.6706 5.80973 11.9188 3.96093 11.1462 2.49344C10.3742 1.0263 8.87356 0.494386 7.79496 1.30744C6.7164 2.11991 6.46813 3.96861 7.24041 5.43624C8.01299 6.90425 9.51335 7.43471 10.5922 6.62263Z" fill="white"/>
<path d="M6.0356 8.74201L6.03588 8.74238C5.82027 7.39626 4.6267 6.28123 3.37083 6.25167C2.11491 6.22267 1.27106 7.28954 1.48641 8.63527L1.4867 8.63564C1.70236 9.98115 2.89568 11.0959 4.15129 11.1251C5.40769 11.1548 6.25113 10.0877 6.0356 8.74201Z" fill="white"/>
<path d="M14.5656 6.60286C15.6445 7.41495 17.1448 6.88449 17.9174 5.41644C18.6897 3.94887 18.4414 2.10013 17.3629 1.28767C16.2843 0.47462 14.7836 1.00658 14.0116 2.47365C13.2389 3.94118 13.4872 5.78997 14.5656 6.60286Z" fill="white"/>
<path d="M12.5 7.366C8.44168 7.366 3.96376 12.9853 5.2601 16.9837C6.5117 20.8441 10.4221 19.2531 12.5 19.2531C14.5779 19.2531 18.4882 20.8441 19.7398 16.9837C21.0362 12.9853 16.5583 7.366 12.5 7.366Z" fill="white"/>
<path d="M23.5133 8.63564L23.5136 8.63527C23.7289 7.28953 22.8851 6.2227 21.6292 6.2517C20.3733 6.28123 19.1797 7.39628 18.9641 8.74236L18.9644 8.74199C18.7488 10.0876 19.5923 11.1547 20.8487 11.1251C22.1043 11.0959 23.2976 9.9812 23.5133 8.63564Z" fill="white"/>
</svg>
